<svg id="Layer_1" data-name="Layer 1" xmlns="http://www.w3.org/2000/svg" viewBox="0 0 1080 1080"><defs><style>.cls-1{fill:#2196f3;}</style></defs><path class="cls-1" d="M684.53,528.13a138.65,138.65,0,0,0-6.65-31.55,142.25,142.25,0,0,0-70-81.46A141.69,141.69,0,0,0,421.15,469.2a142.27,142.27,0,0,0-17,100.84C416,628.21,463.67,673.16,522.82,681.89c1,.14,1.9.22,2.81.29a16.06,16.06,0,0,1,5,.94l.58.25h23.21l.74-.47a5.18,5.18,0,0,1,2.55-.39,20,20,0,0,0,2.11-.11c58.56-7,107.24-49.92,121.14-106.72a152.74,152.74,0,0,0,3.53-20.36l.67-.18V528.31Zm-17.39,13.38a124.19,124.19,0,0,1-123.7,123.84h-.32c-68.16-.18-123.68-55.73-123.78-123.84a124.21,124.21,0,0,1,123.9-124h0a124.21,124.21,0,0,1,123.89,124Z"/><path class="cls-1" d="M448.86,541.55q0-13.42,0-26.84c0-6.87,2.55-9.38,9.51-9.39,15.05,0,30.11-.08,45.16.06,2.66,0,3.48-.57,3.45-3.36-.15-14.94-.08-29.89-.07-44.83,0-7.57,2.38-9.93,10-9.93h53c7.37,0,9.77,2.4,9.78,9.79,0,14.94.1,29.89-.08,44.83,0,3,.91,3.52,3.65,3.49,14.83-.13,29.67-.06,44.5-.06,7.33,0,10,2.7,10,10.12q0,26.51,0,53c0,7.13-2.48,9.62-9.61,9.63-15.06,0-30.11.08-45.16-.07-2.82,0-3.37.82-3.34,3.46.13,14.95.07,29.89.06,44.84,0,7.41-2.4,9.82-9.74,9.83H516.6c-7.15,0-9.67-2.48-9.68-9.57,0-15.16-.06-30.32.06-45.49,0-2.46-.64-3.08-3.07-3.06-15,.12-29.89.07-44.84.06-8,0-10.21-2.22-10.21-10.34Zm148.37,21.88c7.85,0,15.7-.07,23.55.05,2.17,0,3-.4,3-2.81q-.19-19,0-37.95c0-2.4-.79-2.82-3-2.81-15.27.09-30.54.06-45.8,0-6.84,0-9.46-2.65-9.46-9.49,0-15.15-.06-30.31.05-45.47,0-2.42-.41-3.3-3.11-3.26q-19,.24-38,0c-2.46,0-3,.59-3,3,.12,15.05.07,30.1.06,45.15,0,7.42-2.6,10-10,10-15,0-30.1,0-45.14-.05-2.29,0-3.15.32-3.12,2.94.17,12.54.15,25.08,0,37.62,0,2.43.55,3,3,3,15.05-.13,30.1-.06,45.14-.06,7.44,0,10.06,2.6,10.06,10,0,15.05.05,30.09,0,45.14,0,2.26.27,3.17,2.92,3.13,12.54-.17,25.08-.14,37.62,0,2.41,0,3.07-.51,3.05-3-.13-15.16-.07-30.32-.06-45.48,0-7,2.68-9.72,9.61-9.74Z"/><path class="cls-1" d="M813.43,511.14c-.12-14.75-10.49-26.15-24.46-28.56a45.92,45.92,0,0,0-7.13-.18c-10.79-.09-21.58-.16-32.36.06-3.45.07-5.07-.83-6.13-4.3a155.9,155.9,0,0,0-13.18-31.4c-1.81-3.21-1.09-5,1.35-7.32,8.07-7.77,16-15.67,23.79-23.75,12.31-12.84,12.34-30.14-.07-42.87Q735,352.09,714.31,331.87c-13.22-12.92-31.19-12.69-44.41.29-7.85,7.71-15.64,15.47-23.29,23.37-2.09,2.15-3.68,2.49-6.38,1a159.6,159.6,0,0,0-32-13.38c-3.63-1.08-4.29-2.81-4.23-6.17.19-10.78.12-21.58.06-32.37-.11-18.55-12.71-31.3-31.22-31.41q-28.64-.18-57.27,0c-18.21.13-30.91,12.86-31,30.95-.08,11.2-.11,22.41.05,33.62,0,2.95-.81,4.29-3.79,5.21a163.79,163.79,0,0,0-32,13.41c-3.14,1.77-5,1.08-7.37-1.42-7.3-7.66-14.84-15.09-22.4-22.5-13.77-13.52-31.62-13.56-45.31,0q-19.92,19.69-39.61,39.62c-13.44,13.59-13.35,30.94.14,44.66,7.56,7.69,15.13,15.39,22.94,22.83,2.56,2.44,2.89,4.25,1.15,7.35a154.12,154.12,0,0,0-13,30.82c-1.1,3.65-2.62,4.86-6.42,4.76-11-.26-22-.21-33-.06a37.33,37.33,0,0,0-6.6.32c-12.91,2.53-22.48,12.49-23.66,25.62a37.63,37.63,0,0,0-.36,4.8c-.08,9.76,0,19.51,0,29.27,0,10.16-.17,20.34.05,30.5.29,14,10.13,25.09,23.7,27.75a39.5,39.5,0,0,0,7.07.2c11,.15,22,.2,33-.07,3.8-.09,5.32,1.12,6.42,4.76a154.54,154.54,0,0,0,13,30.83c1.74,3.1,1.41,4.91-1.15,7.35-7.81,7.44-15.38,15.14-22.94,22.83-13.49,13.71-13.57,31.07-.14,44.66q19.69,19.92,39.61,39.62c13.69,13.53,31.54,13.49,45.32,0,7.55-7.41,15.09-14.84,22.39-22.5,2.38-2.5,4.23-3.19,7.38-1.42a164.06,164.06,0,0,0,32,13.41c3,.92,3.83,2.25,3.79,5.21-.16,11.21-.13,22.41,0,33.62.13,18.09,12.83,30.82,31,30.94q28.63.21,57.27,0c18.51-.12,31.11-12.87,31.22-31.41.06-10.79.13-21.59-.06-32.38-.06-3.35.6-5.08,4.23-6.16a159.6,159.6,0,0,0,32-13.38c2.7-1.5,4.29-1.16,6.38,1,7.65,7.9,15.44,15.66,23.29,23.37,13.22,13,31.19,13.21,44.41.29q20.7-20.24,40.93-40.95c12.41-12.73,12.38-30,.07-42.87-7.75-8.09-15.72-16-23.79-23.75-2.44-2.35-3.16-4.11-1.35-7.32a156.14,156.14,0,0,0,13.18-31.4c1.06-3.48,2.68-4.37,6.13-4.3,10.78.22,21.58.15,32.37.06a50.52,50.52,0,0,0,7.26-.26c13.14-2.27,22.55-12.32,23.79-25.92a39.22,39.22,0,0,0,.35-5C813.53,550.15,813.58,530.64,813.43,511.14Zm-31.89,69.79c-15.36.09-30.71.16-46.07-.06-4.1-.06-6.05.67-7.14,5.27a176.66,176.66,0,0,1-22.47,53.55c-1.9,3-1.85,4.69.78,7.24,11.17,10.85,22.08,21.94,33.05,33,6.63,6.68,6.63,11.32,0,18q-19.08,19.22-38.26,38.34c-6.5,6.48-11.45,6.44-18.06-.13-10.89-10.82-21.82-21.61-32.53-32.61-2.58-2.65-4.42-3.28-7.78-1.15A174.7,174.7,0,0,1,588.93,725c-4,.93-4.71,2.64-4.67,6.26.17,15.57.11,31.13.06,46.7,0,8.5-3.62,12.17-12.1,12.2q-27.69.12-55.4,0c-8.52,0-12.12-3.67-12.15-12.13-.06-15.77-.09-31.54,0-47.31,0-3.11-.53-4.62-4-5.47A181.09,181.09,0,0,1,445.4,702.1c-2.94-1.86-4.58-1.14-6.77,1.09q-16.36,16.65-33,33c-6.53,6.47-11.6,6.45-18.08,0q-19.41-19.32-38.73-38.75c-6.07-6.11-6.06-10.91,0-17.07C360,669.19,371.06,658,382.36,647c2.58-2.5,2.84-4.17.89-7.25a178.19,178.19,0,0,1-22.69-54.14c-.95-4-2.65-4.76-6.3-4.71-15.35.17-30.71.1-46.06.06-9.29,0-12.72-3.5-12.74-12.82,0-18.26.07-36.52,0-54.79,0-.54,0-1.07,0-1.59.83-6.77,4.48-9.39,12.53-9.42,15.36-.05,30.72-.11,46.07.06,3.65,0,5.35-.73,6.3-4.71a178.19,178.19,0,0,1,22.69-54.14c1.95-3.08,1.69-4.75-.89-7.25-11.3-11-22.4-22.21-33.51-33.4-6.1-6.16-6.11-11,0-17.08q19.31-19.43,38.73-38.75c6.48-6.46,11.55-6.47,18.08,0q16.59,16.43,33,33c2.2,2.23,3.84,3,6.78,1.08A181.32,181.32,0,0,1,500.46,358c3.52-.85,4.07-2.36,4.05-5.47-.13-15.77-.1-31.54,0-47.31,0-8.47,3.63-12.1,12.15-12.14q27.71-.11,55.4,0c8.48,0,12.07,3.7,12.1,12.2,0,15.57.11,31.13-.06,46.69,0,3.63.68,5.33,4.67,6.27a174.7,174.7,0,0,1,54.14,22.63c3.36,2.13,5.2,1.5,7.78-1.15,10.71-11,21.64-21.79,32.53-32.61,6.61-6.57,11.56-6.61,18.06-.13q19.18,19.11,38.26,38.34c6.62,6.66,6.62,11.31,0,18-11,11.05-21.88,22.14-33,33-2.63,2.56-2.68,4.22-.78,7.24a176.72,176.72,0,0,1,22.47,53.56c1.09,4.6,3,5.32,7.14,5.27,15.36-.22,30.71-.15,46.07-.07,7.91.05,11.91,3.68,11.95,11.08.11,19.3,0,38.6,0,57.9,0,.33,0,.66,0,1C792.45,578.06,788.51,580.9,781.54,580.93Z"/><path class="cls-1" d="M130.17,932.85v-31.8h-5.09v-5.3h14.51l11.15,29.06L162,895.75h14.66v5.3h-5.12v31.8h5.12v5.3h-16v-5.3h5.06v-31.8l-14.63,37.53h-1.25l-14.48-37.53v31.8h4.67v5.3h-15v-5.3Z"/><path class="cls-1" d="M211.65,924.86H186.83a10.74,10.74,0,0,0,3.24,6.61,9.55,9.55,0,0,0,6.85,2.53,11.25,11.25,0,0,0,9.61-4.87l5.12,2.25a15.44,15.44,0,0,1-6.5,5.75A19.39,19.39,0,0,1,196.8,939a16.9,16.9,0,0,1-11.57-4.22q-4.8-4.21-4.8-11.38a14.68,14.68,0,0,1,4.68-11.19,15.24,15.24,0,0,1,10.75-4.39,15.86,15.86,0,0,1,10.77,4.28Q211.46,916.39,211.65,924.86Zm-6-4.21a10.5,10.5,0,0,0-3.23-5.62,8.92,8.92,0,0,0-6.43-2.51,8.42,8.42,0,0,0-5.94,2.27,9.63,9.63,0,0,0-3,5.86Z"/><path class="cls-1" d="M252.83,933v5.15h-11.1v-4.33a13.65,13.65,0,0,1-10.55,4.82,14.66,14.66,0,0,1-10.12-3.93c-2.9-2.63-4.35-6.35-4.35-11.19s1.49-8.69,4.48-11.49a14.37,14.37,0,0,1,10.12-4.21,13.85,13.85,0,0,1,10.42,4.76V900.9h-5.67v-5.15h11.46V933Zm-29.94-9.63q0,4.88,2.76,7.49a9.43,9.43,0,0,0,13.2-.13,10.09,10.09,0,0,0,2.88-7.64q0-4.9-2.94-7.4a9.91,9.91,0,0,0-6.6-2.5,8.58,8.58,0,0,0-6.61,2.94A10.34,10.34,0,0,0,222.89,923.37Z"/><path class="cls-1" d="M259.59,933V913.8H255v-5.16h10.36V933H270v5.15H255V933Zm-.82-34.38a3.41,3.41,0,0,1,1-2.44,3.34,3.34,0,0,1,2.52-1,3.42,3.42,0,0,1,2.46,1,3.27,3.27,0,0,1,1,2.47,3.32,3.32,0,0,1-1,2.48,3.38,3.38,0,0,1-2.46,1,3.33,3.33,0,0,1-2.49-1A3.38,3.38,0,0,1,258.77,898.62Z"/><path class="cls-1" d="M301.38,908.64V919.8H296.2a7,7,0,0,0-2.61-4.91,8.64,8.64,0,0,0-11.47,1.05,10.52,10.52,0,0,0-2.44,7.24,12.13,12.13,0,0,0,2.32,7.36,7.76,7.76,0,0,0,6.7,3.19q6.1,0,8.84-5.79l4.79,2.25q-4,8.82-13.87,8.81c-4.68,0-8.35-1.59-11-4.78a16.66,16.66,0,0,1-4-11,14.84,14.84,0,0,1,4.39-11,14,14,0,0,1,10.12-4.34,12.31,12.31,0,0,1,8.29,2.9v-2.08Z"/><path class="cls-1" d="M336.07,933v5.15H326v-3.6a13.14,13.14,0,0,1-9.39,4.09,10.26,10.26,0,0,1-7-2.62,9,9,0,0,1,.18-13.54,11.26,11.26,0,0,1,7.6-2.71,14.55,14.55,0,0,1,8,2.5v-2.93a10.8,10.8,0,0,0-.43-3.47,4.46,4.46,0,0,0-2-2.2,7.68,7.68,0,0,0-4.1-1,6.69,6.69,0,0,0-6.31,3.47L307,914.71q3.69-6.88,12.74-6.89a16.53,16.53,0,0,1,5.75.9,8.4,8.4,0,0,1,3.61,2.32,7.53,7.53,0,0,1,1.6,3.06,24.16,24.16,0,0,1,.41,5.24V933Zm-10.7-5.82a12.29,12.29,0,0,0-7.59-2.93,6,6,0,0,0-4,1.4,4.59,4.59,0,0,0-1.62,3.63,4.66,4.66,0,0,0,1.42,3.47,5.22,5.22,0,0,0,3.86,1.41,11.47,11.47,0,0,0,7.95-3.54Z"/><path class="cls-1" d="M343.36,933V900.9h-5.25v-5.15h11V933h4.51v5.15H338.11V933Z"/><path class="cls-1" d="M377.31,932.85v-31.8h-5.09v-5.3h14.51l11.16,29.06,11.27-29.06h14.67v5.3H418.7v31.8h5.13v5.3h-16v-5.3h5.06v-31.8l-14.63,37.53H397l-14.48-37.53v31.8h4.67v5.3h-15v-5.3Z"/><path class="cls-1" d="M457.66,933v5.15H447.54v-3.6a13.14,13.14,0,0,1-9.39,4.09,10.26,10.26,0,0,1-7-2.62,9,9,0,0,1,.18-13.54,11.26,11.26,0,0,1,7.6-2.71,14.55,14.55,0,0,1,8,2.5v-2.93a10.8,10.8,0,0,0-.43-3.47,4.46,4.46,0,0,0-2-2.2,7.71,7.71,0,0,0-4.1-1,6.69,6.69,0,0,0-6.31,3.47l-5.55-1.46q3.69-6.88,12.74-6.89a16.53,16.53,0,0,1,5.75.9,8.4,8.4,0,0,1,3.61,2.32,7.53,7.53,0,0,1,1.6,3.06,24.16,24.16,0,0,1,.41,5.24V933ZM447,927.18a12.29,12.29,0,0,0-7.59-2.93,5.93,5.93,0,0,0-4,1.4,4.59,4.59,0,0,0-1.62,3.63,4.66,4.66,0,0,0,1.42,3.47,5.22,5.22,0,0,0,3.86,1.41,11.47,11.47,0,0,0,7.95-3.54Z"/><path class="cls-1" d="M471.1,908.64v3.57q5.58-4,10.18-4a7.91,7.91,0,0,1,4.74,1.35,6.31,6.31,0,0,1,2.46,3.33,21.79,21.79,0,0,1,.58,5.74V933h5v5.15H483.26V918.86c0-2.24-.33-3.7-1-4.38a3.34,3.34,0,0,0-2.47-1q-3.84,0-8.69,3.75V933h5.09v5.15H460.13V933h5.18V913.8h-5.18v-5.16Z"/><path class="cls-1" d="M526.58,933v5.15H516.46v-3.6a13.18,13.18,0,0,1-9.39,4.09,10.3,10.3,0,0,1-7-2.62,9,9,0,0,1,.19-13.54,11.26,11.26,0,0,1,7.6-2.71,14.55,14.55,0,0,1,8,2.5v-2.93a10.8,10.8,0,0,0-.43-3.47,4.46,4.46,0,0,0-2-2.2,7.71,7.71,0,0,0-4.1-1,6.69,6.69,0,0,0-6.31,3.47l-5.55-1.46q3.69-6.88,12.74-6.89a16.57,16.57,0,0,1,5.75.9A8.46,8.46,0,0,1,519.6,911a7.65,7.65,0,0,1,1.6,3.06,24.16,24.16,0,0,1,.41,5.24V933Zm-10.7-5.82a12.29,12.29,0,0,0-7.59-2.93,5.91,5.91,0,0,0-4,1.4,4.59,4.59,0,0,0-1.62,3.63,4.66,4.66,0,0,0,1.42,3.47,5.21,5.21,0,0,0,3.85,1.41,11.48,11.48,0,0,0,8-3.54Z"/><path class="cls-1" d="M565.69,908.64v5.16h-5.31v22a34.1,34.1,0,0,1-.46,6.6,10.83,10.83,0,0,1-2.21,4.39,13.21,13.21,0,0,1-5.25,3.77,19.58,19.58,0,0,1-7.84,1.52A18.6,18.6,0,0,1,533,948.12l3.78-4.21a13.32,13.32,0,0,0,8.35,3,11.13,11.13,0,0,0,4.63-1,8.09,8.09,0,0,0,3.19-2.33,7.46,7.46,0,0,0,1.36-2.61,19.88,19.88,0,0,0,.3-4.16v-2.68a14.3,14.3,0,0,1-21,.45,15.44,15.44,0,0,1-4-10.79A15.13,15.13,0,0,1,534,912.5a14.1,14.1,0,0,1,20.62.35v-4.21Zm-30,15.06a10.38,10.38,0,0,0,2.61,7.32,8.65,8.65,0,0,0,6.66,2.83,9.35,9.35,0,0,0,6.83-2.85,9.89,9.89,0,0,0,2.86-7.33,9.66,9.66,0,0,0-2.86-7.3,9.38,9.38,0,0,0-13.26,0A9.74,9.74,0,0,0,535.72,923.7Z"/><path class="cls-1" d="M598.6,924.86H573.79a10.78,10.78,0,0,0,3.23,6.61,9.59,9.59,0,0,0,6.86,2.53,11.22,11.22,0,0,0,9.6-4.87l5.12,2.25a15.42,15.42,0,0,1-6.49,5.75,19.39,19.39,0,0,1-8.35,1.87,16.9,16.9,0,0,1-11.57-4.22q-4.8-4.21-4.8-11.38a14.68,14.68,0,0,1,4.68-11.19,15.24,15.24,0,0,1,10.75-4.39,15.86,15.86,0,0,1,10.77,4.28Q598.42,916.39,598.6,924.86Zm-6-4.21A10.57,10.57,0,0,0,589.4,915a8.92,8.92,0,0,0-6.43-2.51,8.46,8.46,0,0,0-6,2.27,9.67,9.67,0,0,0-3,5.86Z"/><path class="cls-1" d="M607.84,933V913.8h-4.91v-5.16h10.7v3.72q5.24-4.17,10.26-4.17a6.94,6.94,0,0,1,7,4.6q5.76-4.6,10.73-4.6a8.18,8.18,0,0,1,4.71,1.26,6.24,6.24,0,0,1,2.49,3.2,19.57,19.57,0,0,1,.64,5.72V933h5.15v5.15H643.63V919.4a19.64,19.64,0,0,0-.23-3.61,2.92,2.92,0,0,0-1.16-1.74,3.72,3.72,0,0,0-2.24-.68q-3.72,0-8.45,3.81V933h5.06v5.15H625.76V918.86a8.1,8.1,0,0,0-.83-4.2,3.13,3.13,0,0,0-2.84-1.29q-3.29,0-8.46,3.81V933h5.18v5.15H602.57V933Z"/><path class="cls-1" d="M688.4,924.86H663.59a10.73,10.73,0,0,0,3.23,6.61,9.59,9.59,0,0,0,6.86,2.53,11.24,11.24,0,0,0,9.6-4.87l5.12,2.25a15.42,15.42,0,0,1-6.49,5.75,19.42,19.42,0,0,1-8.35,1.87A16.9,16.9,0,0,1,662,934.78q-4.8-4.21-4.8-11.38a14.68,14.68,0,0,1,4.68-11.19,15.23,15.23,0,0,1,10.74-4.39,15.87,15.87,0,0,1,10.78,4.28Q688.22,916.39,688.4,924.86Zm-6-4.21A10.63,10.63,0,0,0,679.2,915a8.92,8.92,0,0,0-6.43-2.51,8.46,8.46,0,0,0-5.95,2.27,9.74,9.74,0,0,0-3,5.86Z"/><path class="cls-1" d="M703.37,908.64v3.57q5.58-4,10.18-4a7.91,7.91,0,0,1,4.74,1.35,6.24,6.24,0,0,1,2.45,3.33,21.37,21.37,0,0,1,.58,5.74V933h5v5.15H715.53V918.86c0-2.24-.33-3.7-1-4.38a3.32,3.32,0,0,0-2.46-1q-3.84,0-8.69,3.75V933h5.09v5.15H692.4V933h5.18V913.8H692.4v-5.16Z"/><path class="cls-1" d="M728.39,913.8v-5.16h3.84V904.1l5.8-5.3v9.84h5.45v5.16H738v14.32a13.3,13.3,0,0,0,.38,4.25c.25.54.89.81,1.9.81a8.51,8.51,0,0,0,3.17-.61v5.28a13.39,13.39,0,0,1-4.45.79,7.2,7.2,0,0,1-4.3-1.18,5,5,0,0,1-2.07-2.94,29.9,29.9,0,0,1-.43-6.09V913.8Z"/><path class="cls-1" d="M763.11,938.15V922.76h5.31v3.75q3.81,6.91,10,6.92a7.68,7.68,0,0,0,5.31-1.93,6.39,6.39,0,0,0,2.16-5,5.09,5.09,0,0,0-1.77-4.35,21.33,21.33,0,0,0-6.67-2.63,48.67,48.67,0,0,1-8.45-2.89,10.84,10.84,0,0,1-4.37-3.87,10.67,10.67,0,0,1-1.63-6,10.85,10.85,0,0,1,3.55-8.51,12.84,12.84,0,0,1,8.92-3.19,15.4,15.4,0,0,1,9.45,3.29v-2.83h5.18V908.4h-5.18v-3a10.26,10.26,0,0,0-9-4.9,7.93,7.93,0,0,0-5.33,1.6,4.87,4.87,0,0,0-1.86,3.82,4.94,4.94,0,0,0,.94,3,5.62,5.62,0,0,0,2.41,1.91,50.44,50.44,0,0,0,5.76,1.7,45.43,45.43,0,0,1,8.14,2.73,11,11,0,0,1,4.36,4.22,12.66,12.66,0,0,1,1.83,6.8,11.66,11.66,0,0,1-3.83,9,13.4,13.4,0,0,1-9.46,3.54,15.12,15.12,0,0,1-10.42-4.18v3.51Z"/><path class="cls-1" d="M809.2,937.63l-9.69-23.83H794.6v-5.16h14.6v5.16h-3.54L812,930.13l6.25-16.33h-3.9v-5.16h14.3v5.16h-4.39l-14.6,37.58H799.9v-5.06h5.76Z"/><path class="cls-1" d="M831.79,938.15V928H837v1a4.79,4.79,0,0,0,2.24,3.41,8.08,8.08,0,0,0,4.65,1.34,8.89,8.89,0,0,0,4.48-1,3,3,0,0,0,1.67-2.72,2.65,2.65,0,0,0-1.38-2.47,19.08,19.08,0,0,0-5.51-1.45q-6.09-1-8.7-3.34a7.56,7.56,0,0,1-2.6-6,7.89,7.89,0,0,1,2.83-6.18,10.9,10.9,0,0,1,7.47-2.48,14.35,14.35,0,0,1,7.19,1.71v-1.26h5.15v9.79h-5.15v-1.8a7.63,7.63,0,0,0-6.83-3.63,6.63,6.63,0,0,0-3.76,1,3,3,0,0,0-1.48,2.64,2.3,2.3,0,0,0,1.36,2.3,26.56,26.56,0,0,0,5.84,1.32,30.85,30.85,0,0,1,6.49,1.57,8.14,8.14,0,0,1,3.64,3,8.28,8.28,0,0,1,1.45,4.86,7.79,7.79,0,0,1-3.16,6.54,14.94,14.94,0,0,1-15.89.28v1.66Z"/><path class="cls-1" d="M859.71,913.8v-5.16h3.84V904.1l5.79-5.3v9.84h5.45v5.16h-5.45v14.32a13.62,13.62,0,0,0,.38,4.25c.25.54.89.81,1.9.81a8.51,8.51,0,0,0,3.17-.61v5.28a13.35,13.35,0,0,1-4.45.79,7.16,7.16,0,0,1-4.29-1.18,5,5,0,0,1-2.08-2.94,30.09,30.09,0,0,1-.42-6.09V913.8Z"/><path class="cls-1" d="M910.12,924.86H885.31a10.73,10.73,0,0,0,3.23,6.61A9.59,9.59,0,0,0,895.4,934a11.24,11.24,0,0,0,9.6-4.87l5.12,2.25a15.42,15.42,0,0,1-6.49,5.75,19.42,19.42,0,0,1-8.35,1.87,16.9,16.9,0,0,1-11.57-4.22q-4.8-4.21-4.8-11.38a14.68,14.68,0,0,1,4.68-11.19,15.23,15.23,0,0,1,10.74-4.39,15.87,15.87,0,0,1,10.78,4.28Q909.94,916.39,910.12,924.86Zm-6-4.21a10.63,10.63,0,0,0-3.23-5.62,8.92,8.92,0,0,0-6.43-2.51,8.46,8.46,0,0,0-6,2.27,9.74,9.74,0,0,0-3,5.86Z"/><path class="cls-1" d="M919.36,933V913.8h-4.91v-5.16h10.7v3.72q5.24-4.17,10.25-4.17a7,7,0,0,1,7,4.6q5.76-4.6,10.73-4.6a8.18,8.18,0,0,1,4.71,1.26,6.17,6.17,0,0,1,2.48,3.2,19.23,19.23,0,0,1,.64,5.72V933h5.16v5.15h-11V919.4a18.76,18.76,0,0,0-.23-3.61,2.86,2.86,0,0,0-1.15-1.74,3.72,3.72,0,0,0-2.24-.68q-3.72,0-8.45,3.81V933h5.06v5.15H937.28V918.86a8.1,8.1,0,0,0-.83-4.2,3.14,3.14,0,0,0-2.85-1.29q-3.29,0-8.45,3.81V933h5.18v5.15H914.08V933Z"/></svg>